<svg width="18" height="15" viewBox="0 0 18 15" fill="none" xmlns="http://www.w3.org/2000/svg">
<path d="M17.9961 1.73137C17.3267 2.025 16.6135 2.21962 15.8698 2.31412C16.6348 1.85737 17.2187 1.13962 17.4932 0.2745C16.78 0.69975 15.9925 1.00013 15.1532 1.16775C14.476 0.446625 13.5107 0 12.4577 0C10.4147 0 8.76997 1.65825 8.76997 3.69113C8.76997 3.98363 8.79472 4.26487 8.85547 4.53262C5.78759 4.383 3.07297 2.91263 1.24934 0.67275C0.930969 1.22513 0.744219 1.85738 0.744219 2.538C0.744219 3.816 1.40234 4.94887 2.38334 5.60475C1.79047 5.5935 1.20884 5.42138 0.716094 5.15025C0.716094 5.1615 0.716094 5.17613 0.716094 5.19075C0.716094 6.984 1.99522 8.4735 3.67259 8.81662C3.37222 8.89875 3.04484 8.93812 2.70509 8.93812C2.46884 8.93812 2.23034 8.92463 2.00647 8.87512C2.48459 10.3365 3.84134 11.4109 5.45459 11.4457C4.19909 12.4279 2.60497 13.0196 0.879219 13.0196C0.576594 13.0196 0.286344 13.0061 -0.00390625 12.969C1.63072 14.0231 3.56797 14.625 5.65709 14.625C12.4476 14.625 16.1601 9 16.1601 4.12425C16.1601 3.96112 16.1545 3.80363 16.1466 3.64725C16.879 3.1275 17.4943 2.47837 17.9961 1.73137Z" fill="white"/>
</svg>
